<svg xmlns="http://www.w3.org/2000/svg" preserveAspectRatio="xMidYMid" width="142.344" height="23.125" viewBox="0 0 142.344 23.125"><defs><style>.cls-1{fill:#fff;fill-rule:evenodd}</style></defs><path d="M124.475 18.495v4.193h-15.712V.511h14.976v4.192h-9.984v4.352h8.864v4.096h-8.864v5.344h10.72zm-28.287 4.641c-.982 0-1.867-.059-2.656-.176a17.167 17.167 0 0 1-2.096-.433 11.66 11.66 0 0 1-2.672-1.088l1.408-3.968c.661.363 1.477.688 2.448.976.97.288 2.16.432 3.568.432.704 0 1.285-.058 1.744-.176.458-.117.826-.277 1.104-.48.277-.202.469-.442.576-.72.106-.277.16-.586.16-.928 0-.725-.342-1.328-1.024-1.808-.683-.48-1.856-.997-3.52-1.552a26.282 26.282 0 0 1-2.176-.88 7.969 7.969 0 0 1-1.952-1.248 5.951 5.951 0 0 1-1.408-1.824c-.363-.714-.544-1.584-.544-2.608s.192-1.946.576-2.768a5.912 5.912 0 0 1 1.632-2.096c.704-.576 1.557-1.018 2.56-1.328 1.002-.309 2.133-.464 3.392-.464 1.493 0 2.784.16 3.872.48 1.088.32 1.984.672 2.688 1.056l-1.44 3.936a13.736 13.736 0 0 0-2.064-.848c-.758-.245-1.67-.368-2.736-.368-1.195 0-2.054.166-2.576.496-.523.331-.784.838-.784 1.52 0 .406.096.747.288 1.024.192.278.464.528.816.752.352.224.757.427 1.216.608.458.182.965.368 1.52.56a33.58 33.58 0 0 1 3.008 1.264c.853.416 1.562.902 2.128 1.456a5.294 5.294 0 0 1 1.264 1.952c.277.747.416 1.654.416 2.72 0 2.07-.726 3.675-2.176 4.816-1.451 1.142-3.638 1.713-6.56 1.713zm-16.066-2.657a52.817 52.817 0 0 0-1.284-2.176 60.933 60.933 0 0 0-1.301-2c-.429-.629-.857-1.2-1.285-1.712h-2.464v8.097h-4.992V.831a28.497 28.497 0 0 1 3.376-.448 43.24 43.24 0 0 1 3.12-.128c3.328 0 5.877.592 7.648 1.776 1.77 1.184 2.656 3.025 2.656 5.52 0 1.558-.358 2.822-1.072 3.792-.715.971-1.744 1.734-3.088 2.288.448.555.917 1.19 1.408 1.904.49.715.976 1.462 1.456 2.24.48.779.944 1.59 1.392 2.432.448.843.864 1.67 1.248 2.481h-5.581l-1.237-2.209zm-.91-15.28c-.822-.458-2.032-.688-3.632-.688-.363 0-.688.011-.976.032-.288.022-.56.043-.816.065v6.015h1.408c1.877 0 3.221-.234 4.032-.704.81-.469 1.216-1.269 1.216-2.4 0-1.088-.411-1.861-1.232-2.32zM61.788 20.688c-.747.778-1.696 1.381-2.848 1.807-1.152.427-2.517.641-4.096.641-1.557 0-2.901-.219-4.032-.657-1.131-.437-2.064-1.045-2.8-1.824a7.276 7.276 0 0 1-1.632-2.784c-.352-1.077-.528-2.266-.528-3.568V.511h4.992v13.376c0 .896.101 1.659.304 2.288.203.63.48 1.142.832 1.536.352.395.779.678 1.28.848a5.077 5.077 0 0 0 1.648.256c1.216 0 2.203-.373 2.96-1.12.757-.746 1.136-2.016 1.136-3.808V.511h4.992v13.792c0 1.302-.181 2.496-.544 3.584-.363 1.088-.917 2.022-1.664 2.801zm-22.943-.481a9.523 9.523 0 0 1-3.504 2.192c-1.355.491-2.811.737-4.368.737-1.515 0-2.944-.246-4.288-.737a9.84 9.84 0 0 1-3.52-2.192c-1.003-.97-1.792-2.176-2.368-3.616-.576-1.44-.864-3.109-.864-5.008 0-1.898.298-3.568.896-5.008.597-1.44 1.402-2.65 2.416-3.632a9.937 9.937 0 0 1 3.52-2.208 12.101 12.101 0 0 1 4.208-.736c1.514 0 2.944.246 4.288.736a9.763 9.763 0 0 1 3.52 2.208c1.002.982 1.792 2.192 2.368 3.632.576 1.44.864 3.11.864 5.008 0 1.899-.283 3.568-.848 5.008-.566 1.44-1.339 2.646-2.32 3.616zM36.461 8.623c-.267-.885-.651-1.642-1.152-2.272a5.08 5.08 0 0 0-1.856-1.456c-.736-.341-1.563-.512-2.48-.512-.939 0-1.771.176-2.496.528a5.253 5.253 0 0 0-1.84 1.472c-.502.63-.886 1.387-1.152 2.272-.267.886-.4 1.862-.4 2.928 0 1.088.133 2.07.4 2.944.266.875.65 1.627 1.152 2.256a5.08 5.08 0 0 0 1.84 1.456c.725.342 1.557.512 2.496.512.917 0 1.744-.17 2.48-.512a5.058 5.058 0 0 0 1.856-1.456c.501-.629.885-1.381 1.152-2.256.266-.874.4-1.856.4-2.944 0-1.088-.134-2.074-.4-2.96zM6.604 16.639c.501.64 1.157 1.147 1.968 1.52.811.374 1.792.56 2.944.56.725 0 1.376-.042 1.952-.128a14.246 14.246 0 0 0 1.536-.304c.448-.117.843-.25 1.184-.4.341-.149.651-.288.928-.416l1.376 4c-.704.427-1.696.811-2.976 1.153-1.28.341-2.763.512-4.448.512-3.605 0-6.352-1.003-8.24-3.009C.94 18.122-.004 15.274-.004 11.583c0-1.834.288-3.472.864-4.912.576-1.44 1.365-2.656 2.368-3.648S5.425 1.279 6.812.767c1.387-.512 2.891-.768 4.512-.768.939 0 1.792.07 2.56.208.768.139 1.44.299 2.016.48a10.026 10.026 0 0 1 2.272 1.008l-1.44 4.032c-.683-.362-1.477-.671-2.384-.928-.907-.256-1.936-.384-3.088-.384-.768 0-1.52.128-2.256.384a5.115 5.115 0 0 0-1.952 1.232c-.565.566-1.019 1.296-1.36 2.192-.341.896-.512 1.984-.512 3.264 0 1.024.112 1.979.336 2.864.224.886.587 1.648 1.088 2.288zm119.723-3.362h5.344l-1.408 5.458h4.352l1.408-5.458h5.344l.992-3.688h-5.344l1.408-5.457h-4.352l-1.408 5.457h-5.344l-.992 3.688z" class="cls-1"/></svg>