<svg xmlns="http://www.w3.org/2000/svg" xmlns:xlink="http://www.w3.org/1999/xlink" preserveAspectRatio="xMidYMid" width="142.344" height="23.125" viewBox="0 0 142.344 23.125">
  <defs>
    <style>
      .cls-1, .cls-2 {
        fill: #fff;
        fill-rule: evenodd;
      }

      .cls-2 {
        opacity: 0.5;
      }
    </style>
  </defs>
  <g>
    <path d="M124.475,18.495 L124.475,22.688 L108.763,22.688 L108.763,0.511 L123.739,0.511 L123.739,4.703 L113.755,4.703 L113.755,9.055 L122.619,9.055 L122.619,13.151 L113.755,13.151 L113.755,18.495 L124.475,18.495 ZM96.188,23.136 C95.206,23.136 94.321,23.077 93.532,22.960 C92.742,22.842 92.044,22.698 91.436,22.527 C90.828,22.357 90.305,22.175 89.868,21.983 C89.430,21.791 89.062,21.610 88.764,21.439 L90.172,17.471 C90.833,17.834 91.649,18.159 92.620,18.447 C93.590,18.735 94.780,18.879 96.188,18.879 C96.892,18.879 97.473,18.821 97.932,18.703 C98.390,18.586 98.758,18.426 99.036,18.223 C99.313,18.021 99.505,17.781 99.612,17.503 C99.718,17.226 99.772,16.917 99.772,16.575 C99.772,15.850 99.430,15.247 98.748,14.767 C98.065,14.287 96.892,13.770 95.228,13.215 C94.502,12.959 93.777,12.666 93.052,12.335 C92.326,12.005 91.676,11.589 91.100,11.087 C90.524,10.586 90.054,9.978 89.692,9.263 C89.329,8.549 89.148,7.679 89.148,6.655 C89.148,5.631 89.340,4.709 89.724,3.887 C90.108,3.066 90.652,2.367 91.356,1.791 C92.060,1.215 92.913,0.773 93.916,0.463 C94.918,0.154 96.049,-0.001 97.308,-0.001 C98.801,-0.001 100.092,0.159 101.180,0.479 C102.268,0.799 103.164,1.151 103.868,1.535 L102.428,5.471 C101.809,5.151 101.121,4.869 100.364,4.623 C99.606,4.378 98.694,4.255 97.628,4.255 C96.433,4.255 95.574,4.421 95.052,4.751 C94.529,5.082 94.268,5.589 94.268,6.271 C94.268,6.677 94.364,7.018 94.556,7.295 C94.748,7.573 95.020,7.823 95.372,8.047 C95.724,8.271 96.129,8.474 96.588,8.655 C97.046,8.837 97.553,9.023 98.108,9.215 C99.260,9.642 100.262,10.063 101.116,10.479 C101.969,10.895 102.678,11.381 103.244,11.935 C103.809,12.490 104.230,13.141 104.508,13.887 C104.785,14.634 104.924,15.541 104.924,16.607 C104.924,18.677 104.198,20.282 102.748,21.423 C101.297,22.565 99.110,23.136 96.188,23.136 ZM80.122,20.479 C79.705,19.733 79.277,19.007 78.838,18.303 C78.399,17.599 77.965,16.933 77.537,16.303 C77.108,15.674 76.680,15.103 76.252,14.591 L73.788,14.591 L73.788,22.688 L68.796,22.688 L68.796,0.831 C69.884,0.618 71.009,0.469 72.172,0.383 C73.334,0.298 74.374,0.255 75.292,0.255 C78.620,0.255 81.169,0.847 82.940,2.031 C84.710,3.215 85.596,5.056 85.596,7.551 C85.596,9.109 85.238,10.373 84.524,11.343 C83.809,12.314 82.780,13.077 81.436,13.631 C81.884,14.186 82.353,14.821 82.844,15.535 C83.334,16.250 83.820,16.997 84.300,17.775 C84.780,18.554 85.244,19.365 85.692,20.207 C86.140,21.050 86.556,21.877 86.940,22.688 L81.359,22.688 C80.952,21.962 80.540,21.226 80.122,20.479 ZM79.212,5.199 C78.390,4.741 77.180,4.511 75.580,4.511 C75.217,4.511 74.892,4.522 74.604,4.543 C74.316,4.565 74.044,4.586 73.788,4.608 L73.788,10.623 L75.196,10.623 C77.073,10.623 78.417,10.389 79.228,9.919 C80.038,9.450 80.444,8.650 80.444,7.519 C80.444,6.431 80.033,5.658 79.212,5.199 ZM61.788,20.688 C61.041,21.466 60.092,22.069 58.940,22.495 C57.788,22.922 56.423,23.136 54.844,23.136 C53.287,23.136 51.943,22.917 50.812,22.479 C49.681,22.042 48.748,21.434 48.012,20.655 C47.276,19.877 46.732,18.949 46.380,17.871 C46.028,16.794 45.852,15.605 45.852,14.303 L45.852,0.511 L50.844,0.511 L50.844,13.887 C50.844,14.783 50.945,15.546 51.148,16.175 C51.351,16.805 51.628,17.317 51.980,17.711 C52.332,18.106 52.759,18.389 53.260,18.559 C53.761,18.730 54.311,18.815 54.908,18.815 C56.124,18.815 57.111,18.442 57.868,17.695 C58.625,16.949 59.004,15.679 59.004,13.887 L59.004,0.511 L63.996,0.511 L63.996,14.303 C63.996,15.605 63.815,16.799 63.452,17.887 C63.089,18.975 62.535,19.909 61.788,20.688 ZM38.845,20.207 C37.863,21.178 36.695,21.909 35.341,22.399 C33.986,22.890 32.530,23.136 30.973,23.136 C29.458,23.136 28.029,22.890 26.685,22.399 C25.341,21.909 24.167,21.178 23.165,20.207 C22.162,19.237 21.373,18.031 20.797,16.591 C20.221,15.151 19.933,13.482 19.933,11.583 C19.933,9.685 20.231,8.015 20.829,6.575 C21.426,5.135 22.231,3.925 23.245,2.943 C24.258,1.962 25.431,1.226 26.765,0.735 C28.098,0.245 29.501,-0.001 30.973,-0.001 C32.487,-0.001 33.917,0.245 35.261,0.735 C36.605,1.226 37.778,1.962 38.781,2.943 C39.783,3.925 40.573,5.135 41.149,6.575 C41.725,8.015 42.013,9.685 42.013,11.583 C42.013,13.482 41.730,15.151 41.165,16.591 C40.599,18.031 39.826,19.237 38.845,20.207 ZM36.461,8.623 C36.194,7.738 35.810,6.981 35.309,6.351 C34.807,5.722 34.189,5.237 33.453,4.895 C32.717,4.554 31.890,4.383 30.973,4.383 C30.034,4.383 29.202,4.559 28.477,4.911 C27.751,5.263 27.138,5.754 26.637,6.383 C26.135,7.013 25.751,7.770 25.485,8.655 C25.218,9.541 25.085,10.517 25.085,11.583 C25.085,12.671 25.218,13.653 25.485,14.527 C25.751,15.402 26.135,16.154 26.637,16.783 C27.138,17.413 27.751,17.898 28.477,18.239 C29.202,18.581 30.034,18.751 30.973,18.751 C31.890,18.751 32.717,18.581 33.453,18.239 C34.189,17.898 34.807,17.413 35.309,16.783 C35.810,16.154 36.194,15.402 36.461,14.527 C36.727,13.653 36.861,12.671 36.861,11.583 C36.861,10.495 36.727,9.509 36.461,8.623 ZM6.604,16.639 C7.105,17.279 7.761,17.786 8.572,18.159 C9.383,18.533 10.364,18.719 11.516,18.719 C12.241,18.719 12.892,18.677 13.468,18.591 C14.044,18.506 14.556,18.405 15.004,18.287 C15.452,18.170 15.847,18.037 16.188,17.887 C16.529,17.738 16.839,17.599 17.116,17.471 L18.492,21.471 C17.788,21.898 16.796,22.282 15.516,22.624 C14.236,22.965 12.753,23.136 11.068,23.136 C7.463,23.136 4.716,22.133 2.828,20.127 C0.940,18.122 -0.004,15.274 -0.004,11.583 C-0.004,9.749 0.284,8.111 0.860,6.671 C1.436,5.231 2.225,4.015 3.228,3.023 C4.231,2.031 5.425,1.279 6.812,0.767 C8.199,0.255 9.703,-0.001 11.324,-0.001 C12.263,-0.001 13.116,0.069 13.884,0.207 C14.652,0.346 15.324,0.506 15.900,0.687 C16.476,0.869 16.956,1.055 17.340,1.247 C17.724,1.439 18.001,1.589 18.172,1.695 L16.732,5.727 C16.049,5.365 15.255,5.056 14.348,4.799 C13.441,4.543 12.412,4.415 11.260,4.415 C10.492,4.415 9.740,4.543 9.004,4.799 C8.268,5.056 7.617,5.466 7.052,6.031 C6.487,6.597 6.033,7.327 5.692,8.223 C5.351,9.119 5.180,10.207 5.180,11.487 C5.180,12.511 5.292,13.466 5.516,14.351 C5.740,15.237 6.103,15.999 6.604,16.639 Z" class="cls-1"/>
    <path d="M126.327,13.277 L131.671,13.277 L130.263,18.735 L134.615,18.735 L136.023,13.277 L141.367,13.277 L142.359,9.589 L137.015,9.589 L138.423,4.132 L134.071,4.132 L132.663,9.589 L127.319,9.589 L126.327,13.277 Z" class="cls-2"/>
  </g>
</svg>
